<mxfile host="app.diagrams.net" modified="2023-12-07T18:36:15.783Z" agent="Mozilla/5.0 (Windows NT 10.0; Win64; x64) AppleWebKit/537.36 (KHTML, like Gecko) Chrome/119.0.0.0 Safari/537.36" etag="FcRHmnF-jY4W0yjWmf31" version="22.1.7" type="onedrive">
  <diagram name="Page-1" id="AuytKJoPVcEYYgkYA83Z">
    <mxGraphModel grid="1" page="1" gridSize="10" guides="1" tooltips="1" connect="1" arrows="1" fold="1" pageScale="1" pageWidth="827" pageHeight="1169" math="0" shadow="0">
      <root>
        <mxCell id="0" />
        <mxCell id="1" parent="0" />
        <mxCell id="uaomao8XPvbiqf_VP6SC-1" style="edgeStyle=orthogonalEdgeStyle;rounded=0;orthogonalLoop=1;jettySize=auto;html=1;exitX=0.5;exitY=1;exitDx=0;exitDy=0;" edge="1" parent="1" source="uaomao8XPvbiqf_VP6SC-2" target="uaomao8XPvbiqf_VP6SC-4">
          <mxGeometry relative="1" as="geometry">
            <mxPoint x="253.14285714285722" y="400" as="targetPoint" />
          </mxGeometry>
        </mxCell>
        <mxCell id="uaomao8XPvbiqf_VP6SC-2" value="&lt;div style=&quot;color: rgb(56, 58, 66); font-family: Consolas, &amp;quot;Courier New&amp;quot;, monospace; font-size: 14px; line-height: 19px;&quot;&gt;&lt;div style=&quot;&quot;&gt;&lt;span style=&quot;color: rgb(64, 120, 242);&quot;&gt;decrypytedEntry&lt;/span&gt;(&lt;span style=&quot;color: rgb(166, 38, 164);&quot;&gt;*&lt;/span&gt;returnArr)&lt;br&gt;&lt;/div&gt;&lt;/div&gt;" style="rounded=0;whiteSpace=wrap;html=1;fillColor=#f5f5f5;strokeColor=#666666;fontColor=#333333;" vertex="1" parent="1">
          <mxGeometry x="130" y="290" width="246" height="40" as="geometry" />
        </mxCell>
        <mxCell id="uaomao8XPvbiqf_VP6SC-3" style="edgeStyle=orthogonalEdgeStyle;rounded=0;orthogonalLoop=1;jettySize=auto;html=1;exitX=1;exitY=0.5;exitDx=0;exitDy=0;entryX=0;entryY=0.5;entryDx=0;entryDy=0;startArrow=block;startFill=0;" edge="1" parent="1" source="uaomao8XPvbiqf_VP6SC-4" target="uaomao8XPvbiqf_VP6SC-6">
          <mxGeometry relative="1" as="geometry" />
        </mxCell>
        <mxCell id="uaomao8XPvbiqf_VP6SC-4" value="&lt;div style=&quot;color: rgb(56, 58, 66); font-family: Consolas, &amp;quot;Courier New&amp;quot;, monospace; font-size: 14px; line-height: 19px;&quot;&gt;&lt;div style=&quot;&quot;&gt;&lt;span style=&quot;color: rgb(64, 120, 242);&quot;&gt;getFuncAddrs&lt;/span&gt;(&lt;span style=&quot;color: rgb(166, 38, 164);&quot;&gt;*&lt;/span&gt;returnArr)&lt;/div&gt;&lt;/div&gt;" style="rounded=1;whiteSpace=wrap;html=1;" vertex="1" parent="1">
          <mxGeometry x="149" y="370" width="208" height="30" as="geometry" />
        </mxCell>
        <mxCell id="uaomao8XPvbiqf_VP6SC-5" style="edgeStyle=orthogonalEdgeStyle;rounded=0;orthogonalLoop=1;jettySize=auto;html=1;exitX=0.5;exitY=1;exitDx=0;exitDy=0;" edge="1" parent="1" source="uaomao8XPvbiqf_VP6SC-6" target="uaomao8XPvbiqf_VP6SC-8">
          <mxGeometry relative="1" as="geometry">
            <mxPoint x="506" y="470" as="targetPoint" />
          </mxGeometry>
        </mxCell>
        <mxCell id="uaomao8XPvbiqf_VP6SC-6" value="&lt;div style=&quot;color: rgb(56, 58, 66); font-family: Consolas, &amp;quot;Courier New&amp;quot;, monospace; font-size: 14px; line-height: 19px;&quot;&gt;&lt;div style=&quot;background-color: rgb(250, 250, 250);&quot;&gt;&lt;/div&gt;&lt;div style=&quot;&quot;&gt;&lt;span style=&quot;color: rgb(64, 120, 242);&quot;&gt;getFuncAddrs&lt;/span&gt;(&lt;span style=&quot;color: rgb(166, 38, 164);&quot;&gt;*&lt;/span&gt;returnArr)&lt;/div&gt;&lt;/div&gt;" style="rounded=0;whiteSpace=wrap;html=1;fillColor=#dae8fc;strokeColor=#6c8ebf;" vertex="1" parent="1">
          <mxGeometry x="508.5" y="365" width="200" height="40" as="geometry" />
        </mxCell>
        <mxCell id="uaomao8XPvbiqf_VP6SC-7" style="edgeStyle=orthogonalEdgeStyle;rounded=0;orthogonalLoop=1;jettySize=auto;html=1;" edge="1" parent="1" source="uaomao8XPvbiqf_VP6SC-8" target="uaomao8XPvbiqf_VP6SC-11">
          <mxGeometry relative="1" as="geometry">
            <mxPoint x="608.5" y="550" as="targetPoint" />
          </mxGeometry>
        </mxCell>
        <mxCell id="uaomao8XPvbiqf_VP6SC-8" value="&lt;div style=&quot;color: rgb(56, 58, 66); font-family: Consolas, &amp;quot;Courier New&amp;quot;, monospace; font-size: 14px; line-height: 19px;&quot;&gt;&lt;div style=&quot;background-color: rgb(250, 250, 250);&quot;&gt;&lt;/div&gt;&lt;div style=&quot;&quot;&gt;newXMem &lt;span style=&quot;color: rgb(166, 38, 164);&quot;&gt;=&lt;/span&gt; [returnArr&lt;span style=&quot;color: rgb(166, 38, 164);&quot;&gt;+&lt;/span&gt;&lt;span style=&quot;color: rgb(152, 104, 1);&quot;&gt;0x54&lt;/span&gt;]&lt;br&gt;&lt;/div&gt;&lt;div style=&quot;&quot;&gt;newXMemMinus0x400000 &lt;span style=&quot;color: #a626a4;&quot;&gt;=&lt;/span&gt; [returnArr&lt;span style=&quot;color: #a626a4;&quot;&gt;+&lt;/span&gt;&lt;span style=&quot;color: #986801;&quot;&gt;0x58&lt;/span&gt;]&lt;/div&gt;&lt;/div&gt;" style="rounded=1;whiteSpace=wrap;html=1;" vertex="1" parent="1">
          <mxGeometry x="426" y="430" width="365" height="40" as="geometry" />
        </mxCell>
        <mxCell id="uaomao8XPvbiqf_VP6SC-9" style="edgeStyle=orthogonalEdgeStyle;rounded=0;orthogonalLoop=1;jettySize=auto;html=1;exitX=1;exitY=0.5;exitDx=0;exitDy=0;startArrow=block;startFill=0;entryX=0;entryY=0.5;entryDx=0;entryDy=0;endArrow=none;endFill=0;" edge="1" parent="1" source="uaomao8XPvbiqf_VP6SC-11">
          <mxGeometry relative="1" as="geometry">
            <mxPoint x="1090" y="520" as="targetPoint" />
          </mxGeometry>
        </mxCell>
        <mxCell id="uaomao8XPvbiqf_VP6SC-10" style="edgeStyle=orthogonalEdgeStyle;rounded=0;orthogonalLoop=1;jettySize=auto;html=1;exitX=0.5;exitY=1;exitDx=0;exitDy=0;" edge="1" parent="1" source="uaomao8XPvbiqf_VP6SC-11" target="uaomao8XPvbiqf_VP6SC-14">
          <mxGeometry relative="1" as="geometry">
            <mxPoint x="608.5882352941178" y="590" as="targetPoint" />
          </mxGeometry>
        </mxCell>
        <mxCell id="uaomao8XPvbiqf_VP6SC-11" value="&lt;div style=&quot;color: rgb(56, 58, 66); font-family: Consolas, &amp;quot;Courier New&amp;quot;, monospace; font-size: 14px; line-height: 19px;&quot;&gt;&lt;div style=&quot;background-color: rgb(250, 250, 250);&quot;&gt;&lt;/div&gt;&lt;div style=&quot;line-height: 19px;&quot;&gt;&lt;div style=&quot;background-color: rgb(250, 250, 250);&quot;&gt;&lt;/div&gt;&lt;div style=&quot;&quot;&gt;&lt;span style=&quot;color: rgb(64, 120, 242);&quot;&gt;useRelocTable&lt;/span&gt;(newXMem, newXMemMinus0x400000)&lt;/div&gt;&lt;/div&gt;&lt;/div&gt;" style="rounded=1;whiteSpace=wrap;html=1;" vertex="1" parent="1">
          <mxGeometry x="429.75" y="500" width="357.5" height="40" as="geometry" />
        </mxCell>
        <mxCell id="uaomao8XPvbiqf_VP6SC-12" style="edgeStyle=orthogonalEdgeStyle;rounded=0;orthogonalLoop=1;jettySize=auto;html=1;exitX=1;exitY=0.5;exitDx=0;exitDy=0;startArrow=block;startFill=0;endArrow=none;endFill=0;" edge="1" parent="1" source="uaomao8XPvbiqf_VP6SC-14">
          <mxGeometry relative="1" as="geometry">
            <mxPoint x="1110" y="665" as="targetPoint" />
          </mxGeometry>
        </mxCell>
        <mxCell id="uaomao8XPvbiqf_VP6SC-13" style="edgeStyle=orthogonalEdgeStyle;rounded=0;orthogonalLoop=1;jettySize=auto;html=1;exitX=0.5;exitY=1;exitDx=0;exitDy=0;" edge="1" parent="1" source="uaomao8XPvbiqf_VP6SC-14">
          <mxGeometry relative="1" as="geometry">
            <mxPoint x="608" y="800" as="targetPoint" />
          </mxGeometry>
        </mxCell>
        <mxCell id="uaomao8XPvbiqf_VP6SC-14" value="&lt;div style=&quot;color: rgb(56, 58, 66); font-family: Consolas, &amp;quot;Courier New&amp;quot;, monospace; font-size: 14px; line-height: 19px;&quot;&gt;&lt;div style=&quot;&quot;&gt;&lt;span style=&quot;background-color: initial;&quot;&gt;[returnArr&lt;/span&gt;&lt;span style=&quot;background-color: initial; color: rgb(166, 38, 164);&quot;&gt;+&lt;/span&gt;&lt;span style=&quot;background-color: initial; color: rgb(152, 104, 1);&quot;&gt;0x1c&lt;/span&gt;&lt;span style=&quot;background-color: initial;&quot;&gt;] &lt;/span&gt;&lt;span style=&quot;background-color: initial; color: rgb(166, 38, 164);&quot;&gt;=&lt;/span&gt;&lt;span style=&quot;background-color: initial;&quot;&gt; &lt;/span&gt;&lt;span style=&quot;background-color: initial; color: rgb(64, 120, 242);&quot;&gt;findKernel32FuncAddr_d&lt;/span&gt;&lt;span style=&quot;background-color: initial;&quot;&gt;(&lt;/span&gt;&lt;span style=&quot;background-color: initial; color: rgb(80, 161, 79);&quot;&gt;&quot;VirtualAlloc&quot;&lt;/span&gt;&lt;span style=&quot;background-color: initial;&quot;&gt;)&lt;/span&gt;&lt;br&gt;&lt;/div&gt;&lt;div style=&quot;&quot;&gt;[returnArr&lt;span style=&quot;color: #a626a4;&quot;&gt;+&lt;/span&gt;&lt;span style=&quot;color: #986801;&quot;&gt;0x20&lt;/span&gt;] &lt;span style=&quot;color: #a626a4;&quot;&gt;=&lt;/span&gt; &lt;span style=&quot;color: #4078f2;&quot;&gt;findKernel32FuncAddr_d&lt;/span&gt;(&lt;span style=&quot;color: #50a14f;&quot;&gt;&quot;VirtualProtect&quot;&lt;/span&gt;)&lt;/div&gt;&lt;div style=&quot;&quot;&gt;[returnArr&lt;span style=&quot;color: #a626a4;&quot;&gt;+&lt;/span&gt;&lt;span style=&quot;color: #986801;&quot;&gt;0x24&lt;/span&gt;] &lt;span style=&quot;color: #a626a4;&quot;&gt;=&lt;/span&gt; &lt;span style=&quot;color: #4078f2;&quot;&gt;findKernel32FuncAddr_d&lt;/span&gt;(&lt;span style=&quot;color: #50a14f;&quot;&gt;&quot;VirtualFree&quot;&lt;/span&gt;)&lt;/div&gt;&lt;div style=&quot;&quot;&gt;[returnArr&lt;span style=&quot;color: #a626a4;&quot;&gt;+&lt;/span&gt;&lt;span style=&quot;color: #986801;&quot;&gt;0x8&lt;/span&gt;] &lt;span style=&quot;color: #a626a4;&quot;&gt;=&lt;/span&gt; &lt;span style=&quot;color: #4078f2;&quot;&gt;findKernel32FuncAddr_d&lt;/span&gt;(&lt;span style=&quot;color: #50a14f;&quot;&gt;&quot;LoadLibraryA&quot;&lt;/span&gt;)&lt;/div&gt;&lt;div style=&quot;&quot;&gt;[returnArr&lt;span style=&quot;color: #a626a4;&quot;&gt;+&lt;/span&gt;&lt;span style=&quot;color: #986801;&quot;&gt;0xc&lt;/span&gt;] &lt;span style=&quot;color: #a626a4;&quot;&gt;=&lt;/span&gt; &lt;span style=&quot;color: #4078f2;&quot;&gt;findKernel32FuncAddr_d&lt;/span&gt;(&lt;span style=&quot;color: #50a14f;&quot;&gt;&quot;GetProcAddress&quot;&lt;/span&gt;)&lt;/div&gt;&lt;div style=&quot;&quot;&gt;[returnArr&lt;span style=&quot;color: #a626a4;&quot;&gt;+&lt;/span&gt;&lt;span style=&quot;color: #986801;&quot;&gt;0x28&lt;/span&gt;] &lt;span style=&quot;color: #a626a4;&quot;&gt;=&lt;/span&gt; &lt;span style=&quot;color: #4078f2;&quot;&gt;findKernel32FuncAddr_d&lt;/span&gt;(&lt;span style=&quot;color: #50a14f;&quot;&gt;&quot;UnmapViewOfFile&quot;&lt;/span&gt;)&lt;/div&gt;&lt;div style=&quot;&quot;&gt;[returnArr] &lt;span style=&quot;color: #a626a4;&quot;&gt;=&lt;/span&gt; &lt;span style=&quot;color: #4078f2;&quot;&gt;findKernel32FuncAddr_d&lt;/span&gt;(&lt;span style=&quot;color: #50a14f;&quot;&gt;&quot;CreateActCtxW&quot;&lt;/span&gt;)&lt;/div&gt;&lt;div style=&quot;&quot;&gt;[returnArr&lt;span style=&quot;color: #a626a4;&quot;&gt;+&lt;/span&gt;&lt;span style=&quot;color: #986801;&quot;&gt;0x4&lt;/span&gt;] &lt;span style=&quot;color: #a626a4;&quot;&gt;=&lt;/span&gt; &lt;span style=&quot;color: #4078f2;&quot;&gt;findKernel32FuncAddr_d&lt;/span&gt;(&lt;span style=&quot;color: #50a14f;&quot;&gt;&quot;ActivateActCtx&quot;&lt;/span&gt;)&lt;/div&gt;&lt;div style=&quot;&quot;&gt;[returnArr&lt;span style=&quot;color: #a626a4;&quot;&gt;+&lt;/span&gt;&lt;span style=&quot;color: #986801;&quot;&gt;0x2c&lt;/span&gt;] &lt;span style=&quot;color: #a626a4;&quot;&gt;=&lt;/span&gt; &lt;span style=&quot;color: #4078f2;&quot;&gt;findKernel32FuncAddr_d&lt;/span&gt;(&lt;span style=&quot;color: #50a14f;&quot;&gt;&quot;AddVectoredExceptionHandler&quot;&lt;/span&gt;)&lt;/div&gt;&lt;div style=&quot;&quot;&gt;[returnArr&lt;span style=&quot;color: #a626a4;&quot;&gt;+&lt;/span&gt;&lt;span style=&quot;color: #986801;&quot;&gt;0x30&lt;/span&gt;] &lt;span style=&quot;color: #a626a4;&quot;&gt;=&lt;/span&gt; &lt;span style=&quot;color: #4078f2;&quot;&gt;findKernel32FuncAddr_d&lt;/span&gt;(&lt;span style=&quot;color: #50a14f;&quot;&gt;&quot;RemoveVectoredExceptionHandler&quot;&lt;/span&gt;)&lt;/div&gt;&lt;/div&gt;" style="rounded=1;whiteSpace=wrap;html=1;" vertex="1" parent="1">
          <mxGeometry x="312.75" y="560" width="591.5" height="210" as="geometry" />
        </mxCell>
        <mxCell id="wK6KLkoz76s8Gj8EdaNo-1" style="edgeStyle=orthogonalEdgeStyle;rounded=0;orthogonalLoop=1;jettySize=auto;html=1;exitX=0.5;exitY=1;exitDx=0;exitDy=0;" edge="1" parent="1" source="uaomao8XPvbiqf_VP6SC-14" target="wK6KLkoz76s8Gj8EdaNo-3">
          <mxGeometry relative="1" as="geometry">
            <mxPoint x="614.4705882352941" y="830" as="targetPoint" />
            <mxPoint x="608.5" y="770" as="sourcePoint" />
          </mxGeometry>
        </mxCell>
        <mxCell id="wK6KLkoz76s8Gj8EdaNo-2" style="edgeStyle=orthogonalEdgeStyle;rounded=0;orthogonalLoop=1;jettySize=auto;html=1;exitX=1;exitY=0.5;exitDx=0;exitDy=0;startArrow=block;startFill=0;endArrow=none;endFill=0;" edge="1" parent="1" source="wK6KLkoz76s8Gj8EdaNo-3">
          <mxGeometry relative="1" as="geometry">
            <mxPoint x="970" y="820" as="targetPoint" />
          </mxGeometry>
        </mxCell>
        <mxCell id="wK6KLkoz76s8Gj8EdaNo-3" value="&lt;div style=&quot;color: rgb(56, 58, 66); font-family: Consolas, &amp;quot;Courier New&amp;quot;, monospace; font-size: 14px; line-height: 19px;&quot;&gt;&lt;div style=&quot;line-height: 19px;&quot;&gt;&lt;div style=&quot;&quot;&gt;retVar = &lt;span style=&quot;color: rgb(64, 120, 242);&quot;&gt;loadImports&lt;/span&gt;(newXMem, &lt;span style=&quot;color: rgb(166, 38, 164);&quot;&gt;*&lt;/span&gt;returnArr)&lt;/div&gt;&lt;div style=&quot;&quot;&gt;&lt;span style=&quot;color: rgb(166, 38, 164);&quot;&gt;return&lt;/span&gt; &lt;span style=&quot;color: rgb(152, 104, 1);&quot;&gt;1&lt;/span&gt;&lt;/div&gt;&lt;/div&gt;&lt;/div&gt;" style="rounded=1;whiteSpace=wrap;html=1;" vertex="1" parent="1">
          <mxGeometry x="446.74" y="800" width="323.51" height="40" as="geometry" />
        </mxCell>
      </root>
    </mxGraphModel>
  </diagram>
</mxfile>
